#!OML:ASF E:/inclinewalkrobotboard/Project1/Captureday1/Session1/subject1.ASF
:FULLY-SPECIFIED
:DEGREES
163
root 0 0 0 1.3997566208478585 -8.73514210739923 0.9506391902848788
lowerback 1.445660952211434 -1.278133787140648 -2.9569169889424374
upperback -1.0519290042267402 -1.5793320589689308 2.242239234891654
thorax -1.667434618431506 -0.7673766943659457 3.9517612024314457
lowerneck -26.661013124041254 -1.897437928048968 -7.1938870487143785
upperneck 11.586104984193664 -0.7284761345052437 4.614558436827904
head 7.898382038059031 -0.17315731529773348 2.627152900922201
rclavicle -4.879056207421777E-15 -8.681364863859964E-16
rhumerus -31.59826774758296 -2.265074048287331 -80.88394934599343
rradius 30.745359837951902
rwrist 17.975605527975876
rhand -18.243435327723827 9.848010758358482
rfingers 7.125019999999953
rthumb 8.037776164261658 -19.96811879536196
lclavicle -1.5536149333732526E-15 -5.406875843843315E-16
lhumerus -10.428158200892584 8.667838524024162 89.42105559047604
lradius 60.33209724513559
lwrist -5.1132794857879755
lhand -33.616554687583495 17.376761154362626
lfingers 7.125020000000008
lthumb -6.807903682306295 47.0139631825685
rfemur 7.416847874654488 8.583613240975355 38.32922149739119
rtibia 21.956504967988213
rfoot -22.238677899187742 -7.020306689369889
rtoes 2.2715370997946582
lfemur -28.45865787138931 0.35140409447406107 -11.505413394820957
ltibia 43.432101249516975
lfoot -3.6806922997787392 -0.7468289499352543
ltoes -3.3382357838459944
164
root 0 0 0 1.3883259766856852 -8.723501972468908 0.9349365875294368
lowerback 1.4564476987585957 -1.2691305876782446 -2.9481636724040556
upperback -1.0576142594882565 -1.565921544442473 2.235481428184723
thorax -1.6801386998385508 -0.7615712248357134 3.9402320991058883
lowerneck -26.536442887228958 -1.8905127244472788 -7.193646359304759
upperneck 11.764546119674971 -0.7260003616230649 4.593203707589099
head 7.945489470573647 -0.17988218493138547 2.6227566630354477
rclavicle -5.5376704798900744E-15 -1.4467027163105215E-15
rhumerus -31.432058863092642 -1.6698304258911234 -80.93300968494444
rradius 30.83601147336887
rwrist 17.821727381056007
rhand -18.379311268044866 9.901222338699363
rfingers 7.125019999999954
rthumb 7.906985430584973 -19.925965613680106
lclavicle -1.6453927299469607E-15 -6.515069905867799E-16
lhumerus -10.770511582358052 8.674035234338799 89.61384852669323
lradius 60.0654125206757
lwrist -5.0198302107417
lhand -33.52731729673485 17.373799051931947
lfingers 7.125020000000008
lthumb -6.721180207883201 47.01420668414747
rfemur 9.198830934234872 8.153365012351468 37.78472758208593
rtibia 24.305769183891424
rfoot -21.77114725306486 -6.323368529821238
rtoes -0.4252224124303954
lfemur -31.200401758754207 -1.9889848974359337 -10.316208649131115
ltibia 33.12368004396724
lfoot -4.118977000832562 1.8996346336989232
ltoes -1.5510929468085806
165
root 0 0 0 1.3837758529987851 -8.722904964998298 0.9254793578048598
lowerback 1.4535679744551029 -1.264128356316157 -2.9444155760267416
upperback -1.0625762554211953 -1.558642906864204 2.229698833801548
thorax -1.6837157184285043 -0.7586029607328065 3.9327872899865315
lowerneck -26.45016224291565 -1.8863264827735087 -7.200211685376686
upperneck 11.917019437838546 -0.722946641828743 4.578554831219021
head 7.989751135948583 -0.1855201709738784 2.621411575693455
rclavicle -6.108106079127824E-15 -1.7045171914226716E-15
rhumerus -31.364798823205312 -1.4146675917407006 -80.94821844316684
rradius 30.87206466824042
rwrist 17.765036722579488
rhand -18.43640039846161 9.922080284685805
rfingers 7.125019999999955
rthumb 7.8520027725766 -19.91040720247995
lclavicle -1.9470980989279747E-15 -7.52529731256415E-16
lhumerus -10.833451823409455 8.84448121557432 89.65968901017953
lradius 59.8881590760398
lwrist -5.033728726174122
lhand -33.51221106087594 17.32607666403706
lfingers 7.125020000000008
lthumb -6.704736050082115 46.96612320256759
rfemur 11.846032996597538 7.741119165189836 36.032425124622435
rtibia 28.022424985958146
rfoot -18.67920788803269 -4.807392035295428
rtoes -3.7145697015150594
lfemur -31.70969573894288 -3.8203252832120502 -9.42030279698401
ltibia 25.95740531123075
lfoot -4.556840781894565 3.373745475356011
ltoes -1.7764532050883002
166
root 0 0 0 1.38306684706798 -8.743021701686487 0.9197399218480709
lowerback 1.4186558907948184 -1.2611964254745487 -2.949021586648458
upperback -1.0799315374398155 -1.55500780522481 2.2218336911753003
thorax -1.6814806719952247 -0.7568460526231792 3.928449151808924
lowerneck -26.353672822327205 -1.8789431026302095 -7.222272275729153
upperneck 12.152191875738444 -0.7080073229463377 4.559224924172927
head 8.065248075566837 -0.19134585467546975 2.623944699681096
rclavicle -7.399121443144282E-15 -1.6785233775257158E-15
rhumerus -31.361824695732285 -1.367442766478721 -80.92560609384725
rradius 30.861975155271008
rwrist 17.75304186292169
rhand -18.447277643243982 9.935158702229499
rfingers 7.125019999999954
rthumb 7.841289491514311 -19.900609100832668
lclavicle -2.711083985094497E-15 -7.501880986795002E-16
lhumerus -10.409625532456198 9.24654278531121 89.40586873203131
lradius 59.85918285901112
lwrist -5.178535978712657
lhand -33.58879596468907 17.253127106577786
lfingers 7.125020000000008
lthumb -6.775888314985749 46.887782274879775
rfemur 12.409402268810402 5.939539093967781 32.12228469176629
rtibia 40.49345343047597
rfoot -10.288693899492635 -1.7424471860829343
rtoes -5.132544499615982
lfemur -29.43582847452669 -4.523731799889951 -10.553377112599955
ltibia 24.12651314042349
lfoot -3.9735894627886568 2.5212878731422865
ltoes -0.7114656896222531
167
root 0 0 0 1.384130989945744 -8.756658045921531 0.9216299398034445
lowerback 1.396191858216156 -1.261979668243799 -2.954644485759011
upperback -1.0900259761844349 -1.5565295139706963 2.2198327816452554
thorax -1.6789785122137058 -0.7571611978157755 3.9299622339733733
lowerneck -26.343255484562643 -1.8780388167714777 -7.233093885510233
upperneck 12.210207175716478 -0.7018862079086028 4.556730570635414
head 8.086825371067649 -0.19239098464301307 2.626597784499042
rclavicle -7.720530788028848E-15 -1.5222644435334886E-15
rhumerus -31.411963415558954 -1.5797648306141472 -80.88791146969284
rradius 30.81455905487199
rwrist 17.75992958198351
rhand -18.407066258394053 9.954820047520933
rfingers 7.125019999999953
rthumb 7.879728146113889 -19.882783566963397
lclavicle -2.941443137791909E-15 -7.334524942994874E-16
lhumerus -10.042207874615302 9.528995302990523 89.20191522692184
lradius 59.90013108436544
lwrist -5.292160479938273
lhand -33.652979968921784 17.212767530347058
lfingers 7.125020000000008
lthumb -6.837105776295795 46.84246015876043
rfemur 5.5667053521830905 3.9259856596432963 29.54339907290602
rtibia 50.81613149484012
rfoot -2.1366926802501567 0.33571822759156067
rtoes -0.3868972229963097
lfemur -25.454937798240813 -4.49607904893646 -13.256078823381964
ltibia 26.49575069970831
lfoot -2.5608946044605574 -0.20421467712817298
ltoes 2.036607403328265
